<svg width="130" height="36" viewBox="0 0 130 36" fill="none" xmlns="http://www.w3.org/2000/svg">
<path fill-rule="evenodd" clip-rule="evenodd" d="M0 5.85731C0 3.80706 0 2.78193 0.399006 1.99884C0.749981 1.31001 1.31001 0.749981 1.99884 0.399006C2.78193 0 3.80706 0 5.85731 0H82.1488C82.1488 2.51329 84.0584 4.33761 86.7784 4.48145C86.5502 4.60546 86.3954 4.84722 86.3954 5.12515C86.3954 5.52951 86.7232 5.85731 87.1275 5.85731C86.7232 5.85731 86.3954 6.18511 86.3954 6.58948C86.3954 6.99384 86.7232 7.32164 87.1275 7.32164C86.7232 7.32164 86.3954 7.64944 86.3954 8.0538C86.3954 8.45817 86.7232 8.78597 87.1275 8.78597C86.7232 8.78597 86.3954 9.11377 86.3954 9.51813C86.3954 9.9225 86.7232 10.2503 87.1275 10.2503C86.7232 10.2503 86.3954 10.5781 86.3954 10.9825C86.3954 11.3868 86.7232 11.7146 87.1275 11.7146C86.7232 11.7146 86.3954 12.0424 86.3954 12.4468C86.3954 12.8512 86.7232 13.179 87.1275 13.179C86.7232 13.179 86.3954 13.5068 86.3954 13.9111C86.3954 14.3155 86.7232 14.6433 87.1275 14.6433C86.7232 14.6433 86.3954 14.9711 86.3954 15.3754C86.3954 15.7798 86.7232 16.1076 87.1275 16.1076C86.7232 16.1076 86.3954 16.4354 86.3954 16.8398C86.3954 17.2441 86.7232 17.5719 87.1275 17.5719C86.7232 17.5719 86.3954 17.8997 86.3954 18.3041C86.3954 18.7085 86.7232 19.0363 87.1275 19.0363C86.7232 19.0363 86.3954 19.3641 86.3954 19.7684C86.3954 20.1728 86.7232 20.5006 87.1275 20.5006C86.7232 20.5006 86.3954 20.8284 86.3954 21.2328C86.3954 21.6371 86.7232 21.9649 87.1275 21.9649C86.7232 21.9649 86.3954 22.2927 86.3954 22.6971C86.3954 23.1014 86.7232 23.4292 87.1275 23.4292C86.7232 23.4292 86.3954 23.757 86.3954 24.1614C86.3954 24.5658 86.7232 24.8936 87.1275 24.8936C86.7232 24.8936 86.3954 25.2214 86.3954 25.6257C86.3954 26.0297 86.7225 26.3573 87.1263 26.3579C86.7225 26.3585 86.3954 26.6861 86.3954 27.0901C86.3954 27.4944 86.7232 27.8222 87.1275 27.8222C86.7232 27.8222 86.3954 28.15 86.3954 28.5544C86.3954 28.8323 86.5502 29.0741 86.7784 29.1981C84.0584 29.3419 82.1488 31.1663 82.1488 33.6795H5.85732C3.80706 33.6795 2.78193 33.6795 1.99884 33.2805C1.31001 32.9296 0.749981 32.3695 0.399006 31.6807C0 30.8976 0 29.8725 0 27.8222V5.85731ZM7.8488 7.48091V24.7322H11.7322V17.6126H18.553V14.3515H11.7322V10.742H19.3994V7.48091H7.8488ZM23.9853 24.6326C24.6657 24.8483 25.5453 24.9645 26.624 24.9811L27.1468 21.9192C26.6987 21.886 26.3419 21.8113 26.0763 21.6951C25.8108 21.579 25.6034 21.4296 25.454 21.2471C25.3212 21.0645 25.23 20.8405 25.1802 20.5749C25.1304 20.3094 25.1055 20.0107 25.1055 19.6788V5.41475L21.3964 6.01219V20.4256C21.3964 21.1226 21.4627 21.7532 21.5955 22.3175C21.7449 22.8651 22.0104 23.3381 22.3921 23.7364C22.7904 24.1181 23.3215 24.4168 23.9853 24.6326ZM28.775 24.7322H32.4841V11.6381H28.775V24.7322ZM32.1605 9.4724C32.6086 9.0741 32.8326 8.53474 32.8326 7.85432C32.8326 7.17389 32.6086 6.64283 32.1605 6.26113C31.729 5.86283 31.2145 5.66368 30.6171 5.66368C30.0196 5.66368 29.4969 5.86283 29.0488 6.26113C28.6173 6.64283 28.4016 7.17389 28.4016 7.85432C28.4016 8.53474 28.6173 9.0741 29.0488 9.4724C29.4969 9.8541 30.0196 10.045 30.6171 10.045C31.2145 10.045 31.729 9.8541 32.1605 9.4724ZM41.1486 20.8737C39.4725 20.8737 38.6344 19.8364 38.6344 17.762C38.6344 16.7662 38.875 15.9447 39.3563 15.2975C39.8376 14.6503 40.5678 14.3266 41.5469 14.3266C41.8788 14.3266 42.1693 14.3432 42.4182 14.3764C42.6671 14.393 42.8829 14.4179 43.0654 14.4511V20.3758C42.8331 20.5086 42.551 20.6247 42.2191 20.7243C41.8871 20.8239 41.5303 20.8737 41.1486 20.8737ZM45.1316 27.8439C46.2269 26.8149 46.7746 25.23 46.7746 23.0892V12.0862C46.4427 11.9867 46.061 11.8954 45.6295 11.8124C45.2146 11.7128 44.7748 11.6298 44.3101 11.5635C43.8454 11.4971 43.3725 11.4473 42.8912 11.4141C42.4265 11.3643 41.9701 11.3394 41.522 11.3394C40.4765 11.3394 39.5388 11.4971 38.7091 11.8124C37.8793 12.1111 37.174 12.5426 36.5931 13.1069C36.0288 13.6711 35.5974 14.3515 35.2986 15.1481C34.9999 15.9281 34.8506 16.7994 34.8506 17.762C34.8506 19.6871 35.3318 21.189 36.2944 22.2677C37.2569 23.3298 38.6427 23.8609 40.4516 23.8609C40.9495 23.8609 41.4059 23.8194 41.8208 23.7364C42.2522 23.6368 42.6671 23.4958 43.0654 23.3132V23.7862C43.0654 24.5164 42.8414 25.1139 42.3933 25.5785C41.9618 26.0432 41.215 26.2756 40.1529 26.2756C39.3397 26.2756 38.6095 26.2092 37.9622 26.0764C37.3316 25.9437 36.7259 25.7611 36.145 25.5288L35.4978 28.6405C36.1782 28.8728 36.9167 29.0553 37.7133 29.1881C38.5099 29.3375 39.3065 29.4122 40.1031 29.4122C42.3767 29.4122 44.0529 28.8894 45.1316 27.8439ZM49.7556 6.01219V24.7322H53.4647V14.7747C53.6971 14.7084 53.9543 14.6503 54.2364 14.6005C54.5351 14.5341 54.8505 14.5009 55.1824 14.5009C56.0122 14.5009 56.5764 14.7498 56.8751 15.2477C57.1905 15.7456 57.3481 16.592 57.3481 17.7869V24.7322H61.0573V17.3388C61.0573 16.4426 60.966 15.6294 60.7834 14.8992C60.6175 14.169 60.3188 13.5384 59.8873 13.0073C59.4724 12.4762 58.9081 12.0696 58.1945 11.7875C57.4975 11.4888 56.6179 11.3394 55.5558 11.3394C55.1907 11.3394 54.809 11.3809 54.4107 11.4639C54.029 11.5303 53.7137 11.6049 53.4647 11.6879V5.41475L49.7556 6.01219ZM67.5014 7.77964L63.7923 8.37708V19.38C63.7923 20.2264 63.8669 20.9981 64.0163 21.6951C64.1823 22.3922 64.4644 22.9896 64.8627 23.4875C65.261 23.9688 65.792 24.3505 66.4559 24.6326C67.1197 24.8981 67.9578 25.0309 68.9701 25.0309C69.7667 25.0309 70.4388 24.9645 70.9865 24.8317C71.5342 24.699 72.032 24.5413 72.4801 24.3588L71.9573 21.4711C71.6088 21.6039 71.2188 21.7117 70.7873 21.7947C70.3725 21.8611 69.9659 21.8943 69.5676 21.8943C68.7378 21.8943 68.1818 21.662 67.8997 21.1973C67.6342 20.7326 67.5014 20.1103 67.5014 19.3303V14.7249H71.9573V11.6381H67.5014V7.77964ZM79.6827 21.8694C79.4006 22.0022 78.9193 22.0686 78.2389 22.0686C77.5917 22.0686 76.9361 22.0022 76.2723 21.8694C75.6085 21.72 74.9612 21.5209 74.3306 21.272L73.7083 24.2841C74.007 24.4168 74.538 24.5828 75.3014 24.782C76.0814 24.9811 77.0523 25.0807 78.214 25.0807C79.9897 25.0807 81.3589 24.7488 82.3214 24.0849C83.3006 23.4211 83.7902 22.442 83.7902 21.1475C83.7902 20.5998 83.7238 20.1186 83.591 19.7037C83.4748 19.2888 83.2591 18.9154 82.9438 18.5835C82.6451 18.2349 82.2302 17.9196 81.6991 17.6375C81.168 17.3388 80.4959 17.04 79.6827 16.7413C79.2844 16.592 78.9525 16.4592 78.687 16.343C78.438 16.2103 78.2389 16.0941 78.0895 15.9945C77.9402 15.8783 77.8406 15.7622 77.7908 15.646C77.741 15.5298 77.7161 15.3971 77.7161 15.2477C77.7161 14.6005 78.297 14.2769 79.4587 14.2769C80.0893 14.2769 80.6536 14.3349 81.1514 14.4511C81.6659 14.5673 82.1389 14.7001 82.5704 14.8494L83.2176 11.9618C82.7861 11.7958 82.2053 11.6464 81.4751 11.5137C80.7448 11.3643 79.9814 11.2896 79.1848 11.2896C77.5917 11.2896 76.3387 11.6464 75.4259 12.3601C74.5132 13.0737 74.0568 14.0445 74.0568 15.2726C74.0568 15.9032 74.148 16.4426 74.3306 16.8907C74.5132 17.3388 74.7704 17.7288 75.1023 18.0607C75.4342 18.376 75.8325 18.6498 76.2972 18.8822C76.7785 19.1145 77.3095 19.3386 77.8904 19.5543C78.6372 19.8364 79.1931 20.0937 79.5583 20.326C79.9234 20.5417 80.1059 20.799 80.1059 21.0977C80.1059 21.4794 79.9648 21.7366 79.6827 21.8694Z" fill="url(#paint0_linear_2642_13216)"/>
<mask id="path-2-inside-1_2642_13216" fill="white">
<path fill-rule="evenodd" clip-rule="evenodd" d="M123.395 1.80097L93.7616 0.247944C93.6303 2.75283 91.7275 4.47769 89.1431 4.49263C89.3654 4.62819 89.5081 4.87825 89.4935 5.15645C89.4725 5.55692 89.1335 5.86531 88.734 5.84975C89.1329 5.87606 89.4378 6.21819 89.4168 6.61864C89.3956 7.02243 89.0511 7.33262 88.6474 7.31148L88.6473 7.3117L88.6474 7.3117C89.0512 7.33286 89.3614 7.67737 89.3402 8.08118C89.3192 8.48163 88.9802 8.79002 88.5808 8.77448C88.9796 8.80081 89.2845 9.14292 89.2635 9.54336C89.2424 9.94715 88.8979 10.2573 88.4941 10.2362L88.4941 10.2364L88.4941 10.2364C88.8979 10.2576 89.2081 10.6021 89.1869 11.0059C89.1659 11.4064 88.8269 11.7148 88.4275 11.6992C88.8264 11.7255 89.1312 12.0676 89.1102 12.4681C89.0893 12.8685 88.7504 13.1768 88.351 13.1614C88.7498 13.1878 89.0546 13.5299 89.0336 13.9303C89.0125 14.3341 88.668 14.6443 88.2642 14.6231L88.2642 14.6233L88.2642 14.6233C88.668 14.6445 88.9782 14.989 88.957 15.3928C88.9361 15.7933 88.5971 16.1017 88.1976 16.0861C88.5965 16.1124 88.9014 16.4545 88.8804 16.855C88.8594 17.2554 88.5205 17.5637 88.1212 17.5483C88.52 17.5747 88.8248 17.9168 88.8038 18.3172C88.7826 18.721 88.4381 19.0312 88.0343 19.01L88.0343 19.01L88.0342 19.0102C88.4381 19.0314 88.7482 19.3759 88.7271 19.7797C88.7061 20.1801 88.3672 20.4884 87.9679 20.473C88.3667 20.4994 88.6715 20.8415 88.6505 21.2419C88.6293 21.6457 88.2848 21.9559 87.881 21.9347L87.881 21.9347L87.881 21.9348C88.2848 21.9559 88.595 22.3004 88.5738 22.7043C88.5526 23.1081 88.2081 23.4183 87.8043 23.3971L87.8043 23.3971L87.8044 23.3971C88.2082 23.4183 88.5184 23.7628 88.4972 24.1666C88.476 24.5704 88.1315 24.8806 87.7277 24.8595L87.7277 24.8595L87.7277 24.8595C88.1315 24.8807 88.4417 25.2252 88.4205 25.629C88.3994 26.0328 88.0549 26.343 87.651 26.3218L87.651 26.3219L87.6511 26.3219C88.0549 26.343 88.3651 26.6875 88.3439 27.0913C88.3229 27.4918 87.9839 27.8002 87.5845 27.7846C87.9834 27.811 88.2882 28.1531 88.2672 28.5535C88.2527 28.8318 88.0846 29.0656 87.8493 29.1771C90.418 29.4621 92.1302 31.3764 91.9989 33.8813L121.632 35.4344C123.68 35.5417 124.704 35.5953 125.506 35.2378C126.213 34.9234 126.801 34.3934 127.188 33.7239C127.627 32.9628 127.681 31.9391 127.788 29.8916L128.938 7.9568C129.045 5.90936 129.099 4.88564 128.741 4.08274C128.427 3.37649 127.897 2.78791 127.227 2.40137C126.466 1.96192 125.443 1.90827 123.395 1.80097Z"/>
</mask>
<path d="M93.7616 0.247944L93.8191 -0.848797L92.7223 -0.906275L92.6648 0.190466L93.7616 0.247944ZM123.395 1.80097L123.338 2.89771L123.395 1.80097ZM89.1431 4.49263L89.1368 3.3944L85.2705 3.41674L88.5712 5.4302L89.1431 4.49263ZM88.734 5.84975L88.7768 4.75234L88.6617 6.94562L88.734 5.84975ZM88.6474 7.31148L88.7048 6.21474L87.6081 6.15732L87.5506 7.254L88.6474 7.31148ZM88.6473 7.3117L87.5506 7.25422L87.4931 8.35096L88.5899 8.40844L88.6473 7.3117ZM88.6474 7.3117L88.5899 8.40844L88.6474 7.3117ZM88.5808 8.77448L88.6235 7.67706L88.5084 9.87034L88.5808 8.77448ZM88.4941 10.2362L88.5515 9.13946L87.4548 9.08204L87.3973 10.1787L88.4941 10.2362ZM88.4941 10.2364L87.3973 10.1789L87.3398 11.2757L88.4366 11.3332L88.4941 10.2364ZM88.4275 11.6992L88.4702 10.6018L88.3552 12.7951L88.4275 11.6992ZM88.351 13.1614L88.3934 12.064L88.2785 14.2572L88.351 13.1614ZM88.2642 14.6231L88.3216 13.5264L87.2249 13.4689L87.1674 14.5656L88.2642 14.6231ZM88.2642 14.6233L87.1674 14.5658L87.1099 15.6626L88.2067 15.7201L88.2642 14.6233ZM88.1976 16.0861L88.2403 14.9887L88.1253 17.182L88.1976 16.0861ZM88.1212 17.5483L88.1635 16.4509L88.0486 18.6441L88.1212 17.5483ZM88.0343 19.01L88.0917 17.9133L87.0018 17.8562L86.9379 18.9457L88.0343 19.01ZM88.0342 19.0102L86.9379 18.9459L86.8732 20.0491L87.9768 20.107L88.0342 19.0102ZM87.9679 20.473L88.0103 19.3756L87.8954 21.5689L87.9679 20.473ZM87.881 21.9347L87.9385 20.838L87.881 21.9347ZM87.881 21.9347L87.9385 20.838L87.095 20.7938L86.8358 21.5976L87.881 21.9347ZM87.881 21.9348L86.8358 21.5976L86.3973 22.9568L87.8235 23.0315L87.881 21.9348ZM87.8043 23.3971L87.8618 22.3004L86.7651 22.2429L86.7076 23.3396L87.8043 23.3971ZM87.8043 23.3971L86.7076 23.3397L86.6501 24.4364L87.7468 24.4939L87.8043 23.3971ZM87.8044 23.3971L87.8618 22.3004L87.8044 23.3971ZM87.7277 24.8595L87.7852 23.7627L87.7277 24.8595ZM87.7277 24.8595L87.7852 23.7627L86.809 23.7116L86.645 24.6752L87.7277 24.8595ZM87.7277 24.8595L86.645 24.6753L86.438 25.8917L87.6702 25.9562L87.7277 24.8595ZM87.651 26.3218L87.7085 25.2251L86.6118 25.1676L86.5543 26.2644L87.651 26.3218ZM87.651 26.3219L86.5543 26.2644L86.4968 27.3611L87.5936 27.4186L87.651 26.3219ZM87.5845 27.7846L87.6272 26.6872L87.5122 28.8805L87.5845 27.7846ZM87.8493 29.1771L87.3787 28.1849L83.8844 29.8423L87.7283 30.2687L87.8493 29.1771ZM91.9989 33.8813L90.9022 33.8239L90.8447 34.9206L91.9414 34.9781L91.9989 33.8813ZM125.506 35.2378L125.06 34.2345L125.506 35.2378ZM127.188 33.7239L128.139 34.273L127.188 33.7239ZM128.741 4.08274L127.738 4.52944L127.738 4.52944L128.741 4.08274ZM127.227 2.40137L127.777 1.45026L127.777 1.45026L127.227 2.40137ZM93.7041 1.34469L123.338 2.89771L123.453 0.70423L93.8191 -0.848797L93.7041 1.34469ZM89.1495 5.59086C92.2731 5.57281 94.6944 3.43273 94.8583 0.305422L92.6648 0.190466C92.5662 2.07294 91.1818 3.38258 89.1368 3.3944L89.1495 5.59086ZM90.5902 5.21393C90.6268 4.51692 90.2679 3.8923 89.7151 3.55505L88.5712 5.4302C88.4628 5.36408 88.3894 5.23957 88.3967 5.09897L90.5902 5.21393ZM88.6913 6.94717C89.6903 6.98608 90.5377 6.21517 90.5902 5.21393L88.3967 5.09897C88.4072 4.89866 88.5767 4.74455 88.7768 4.75234L88.6913 6.94717ZM90.5135 6.67611C90.566 5.67491 89.8038 4.81968 88.8063 4.75389L88.6617 6.94562C88.462 6.93244 88.3096 6.76147 88.3201 6.56116L90.5135 6.67611ZM88.5899 8.40822C89.5994 8.46108 90.4606 7.6856 90.5135 6.67611L88.3201 6.56116C88.3306 6.35926 88.5029 6.20417 88.7048 6.21474L88.5899 8.40822ZM89.7441 7.36917L89.7441 7.36896L87.5506 7.254L87.5506 7.25422L89.7441 7.36917ZM88.7048 6.21496L88.7048 6.21496L88.5899 8.40844L88.5899 8.40844L88.7048 6.21496ZM90.4369 8.13865C90.4899 7.12913 89.7144 6.26786 88.7048 6.21496L88.5899 8.40844C88.388 8.39786 88.2329 8.2256 88.2435 8.0237L90.4369 8.13865ZM88.5381 9.87189C89.5371 9.91076 90.3845 9.13987 90.4369 8.13865L88.2435 8.0237C88.254 7.82339 88.4234 7.66928 88.6235 7.67706L88.5381 9.87189ZM90.3603 9.60084C90.4127 8.59967 89.6506 7.74446 88.6531 7.67862L88.5084 9.87034C88.3087 9.85715 88.1563 9.68618 88.1668 9.48588L90.3603 9.60084ZM88.4367 11.3329C89.4461 11.3858 90.3074 10.6103 90.3603 9.60084L88.1668 9.48588C88.1774 9.28398 88.3496 9.12889 88.5515 9.13946L88.4367 11.3329ZM89.5908 10.2939L89.5908 10.2937L87.3973 10.1787L87.3973 10.1789L89.5908 10.2939ZM88.5516 9.13968L88.5515 9.13968L88.4366 11.3332L88.4366 11.3332L88.5516 9.13968ZM90.2837 11.0634C90.3366 10.0539 89.5611 9.19259 88.5516 9.13968L88.4366 11.3332C88.2347 11.3226 88.0796 11.1503 88.0902 10.9484L90.2837 11.0634ZM88.3847 12.7966C89.3837 12.8355 90.2312 12.0646 90.2837 11.0634L88.0902 10.9484C88.1007 10.7481 88.2702 10.594 88.4702 10.6018L88.3847 12.7966ZM90.207 12.5256C90.2595 11.5244 89.4973 10.6691 88.4997 10.6033L88.3552 12.7951C88.1554 12.7819 88.003 12.6109 88.0135 12.4106L90.207 12.5256ZM88.3086 14.2588C89.3073 14.2974 90.1545 13.5266 90.207 12.5256L88.0135 12.4106C88.024 12.2103 88.1934 12.0562 88.3934 12.064L88.3086 14.2588ZM90.1304 13.9877C90.1829 12.9867 89.4208 12.1315 88.4235 12.0655L88.2785 14.2572C88.0788 14.244 87.9264 14.0731 87.9369 13.8728L90.1304 13.9877ZM88.2067 15.7198C89.2162 15.7728 90.0775 14.9973 90.1304 13.9877L87.9369 13.8728C87.9475 13.6709 88.1197 13.5158 88.3216 13.5264L88.2067 15.7198ZM89.3609 14.6808L89.3609 14.6806L87.1674 14.5656L87.1674 14.5658L89.3609 14.6808ZM88.3217 13.5266L88.3216 13.5266L88.2067 15.7201L88.2067 15.7201L88.3217 13.5266ZM90.0538 15.4503C90.1067 14.4408 89.3312 13.5795 88.3217 13.5266L88.2067 15.7201C88.0048 15.7095 87.8497 15.5372 87.8603 15.3353L90.0538 15.4503ZM88.1549 17.1835C89.1538 17.2224 90.0013 16.4515 90.0538 15.4503L87.8603 15.3353C87.8708 15.135 88.0403 14.9809 88.2403 14.9887L88.1549 17.1835ZM89.9771 16.9125C90.0296 15.9113 89.2674 15.056 88.2699 14.9902L88.1253 17.182C87.9256 17.1688 87.7731 16.9978 87.7836 16.7975L89.9771 16.9125ZM88.0788 18.6457C89.0775 18.6843 89.9246 17.9135 89.9771 16.9125L87.7836 16.7975C87.7941 16.5972 87.9635 16.4432 88.1635 16.4509L88.0788 18.6457ZM89.9005 18.3747C89.953 17.3736 89.191 16.5185 88.1937 16.4525L88.0486 18.6441C87.8489 18.6309 87.6965 18.46 87.707 18.2597L89.9005 18.3747ZM87.9768 20.1068C88.9863 20.1597 89.8476 19.3842 89.9005 18.3747L87.707 18.2597C87.7176 18.0578 87.8899 17.9027 88.0918 17.9133L87.9768 20.1068ZM87.9768 20.1068L87.9768 20.1068L88.0918 17.9133L88.0917 17.9133L87.9768 20.1068ZM89.1306 19.0745L89.1306 19.0743L86.9379 18.9457L86.9379 18.9459L89.1306 19.0745ZM89.8238 19.8372C89.8767 18.8277 89.1012 17.9664 88.0917 17.9135L87.9768 20.107C87.7749 20.0964 87.6198 19.9241 87.6303 19.7222L89.8238 19.8372ZM87.9255 21.5705C88.9242 21.609 89.7714 20.8382 89.8238 19.8372L87.6303 19.7222C87.6408 19.522 87.8102 19.3679 88.0103 19.3756L87.9255 21.5705ZM89.7472 21.2994C89.7997 20.2983 89.0377 19.4432 88.0404 19.3772L87.8954 21.5689C87.6956 21.5557 87.5433 21.3847 87.5538 21.1844L89.7472 21.2994ZM87.8235 23.0315C88.8331 23.0844 89.6943 22.3089 89.7472 21.2994L87.5538 21.1844C87.5643 20.9825 87.7366 20.8274 87.9385 20.838L87.8235 23.0315ZM87.8235 23.0315L87.8235 23.0315L87.9385 20.838L87.9385 20.838L87.8235 23.0315ZM88.9262 22.2719L88.9262 22.2719L86.8358 21.5976L86.8358 21.5976L88.9262 22.2719ZM89.6705 22.7617C89.7235 21.7522 88.948 20.8909 87.9384 20.838L87.8235 23.0315C87.6216 23.0209 87.4665 22.8487 87.4771 22.6468L89.6705 22.7617ZM87.7469 24.4938C88.7564 24.5467 89.6176 23.7713 89.6705 22.7617L87.4771 22.6468C87.4876 22.4449 87.6599 22.2898 87.8618 22.3004L87.7469 24.4938ZM88.9011 23.4546L88.9011 23.4546L86.7076 23.3396L86.7076 23.3397L88.9011 23.4546ZM87.8618 22.3004L87.8618 22.3004L87.7468 24.4939L87.7469 24.4939L87.8618 22.3004ZM89.594 24.2241C89.6469 23.2146 88.8714 22.3533 87.8618 22.3004L87.7469 24.4939C87.545 24.4833 87.3899 24.311 87.4005 24.1091L89.594 24.2241ZM87.6703 25.9562C88.6798 26.0091 89.541 25.2336 89.594 24.2241L87.4005 24.1091C87.4111 23.9072 87.5833 23.7521 87.7852 23.7627L87.6703 25.9562ZM87.6702 25.9562L87.6703 25.9562L87.7852 23.7627L87.7852 23.7627L87.6702 25.9562ZM88.8104 25.0437L88.8104 25.0437L86.645 24.6752L86.645 24.6753L88.8104 25.0437ZM89.5173 25.6865C89.5702 24.6769 88.7947 23.8157 87.7852 23.7628L87.6702 25.9562C87.4683 25.9457 87.3132 25.7734 87.3238 25.5715L89.5173 25.6865ZM87.5936 27.4186C88.6031 27.4715 89.4644 26.696 89.5173 25.6865L87.3238 25.5715C87.3344 25.3696 87.5066 25.2145 87.7085 25.2251L87.5936 27.4186ZM88.7478 26.3793L88.7478 26.3793L86.5543 26.2644L86.5543 26.2644L88.7478 26.3793ZM87.7086 25.2251L87.7085 25.2251L87.5936 27.4186L87.5936 27.4186L87.7086 25.2251ZM89.4407 27.1488C89.4936 26.1393 88.7181 25.278 87.7086 25.2251L87.5936 27.4186C87.3917 27.408 87.2366 27.2358 87.2472 27.0339L89.4407 27.1488ZM87.5417 28.8821C88.5407 28.921 89.3882 28.1501 89.4407 27.1488L87.2472 27.0339C87.2577 26.8335 87.4272 26.6794 87.6272 26.6872L87.5417 28.8821ZM87.5122 28.8805C87.3124 28.8673 87.16 28.6964 87.1705 28.496L89.364 28.611C89.4165 27.6098 88.6543 26.7546 87.6568 26.6888L87.5122 28.8805ZM87.1705 28.496C87.1779 28.3554 87.264 28.2393 87.3787 28.1849L88.32 30.1694C88.9052 29.8918 89.3275 29.3081 89.364 28.611L87.1705 28.496ZM93.0957 33.9388C93.2596 30.8115 91.0752 28.43 87.9704 28.0856L87.7283 30.2687C89.7609 30.4942 91.0008 31.9414 90.9022 33.8239L93.0957 33.9388ZM121.69 34.3376L92.0564 32.7846L91.9414 34.9781L121.575 36.5311L121.69 34.3376ZM125.06 34.2345C124.844 34.3308 124.548 34.3967 124.004 34.4126C123.447 34.4289 122.732 34.3922 121.69 34.3376L121.575 36.5311C122.581 36.5838 123.401 36.6276 124.068 36.6082C124.749 36.5883 125.367 36.5023 125.953 36.2411L125.06 34.2345ZM126.237 33.1748C125.966 33.6435 125.554 34.0144 125.06 34.2345L125.953 36.2411C126.871 35.8324 127.636 35.1434 128.139 34.273L126.237 33.1748ZM126.692 29.8342C126.637 30.876 126.599 31.5913 126.524 32.1435C126.452 32.683 126.355 32.9698 126.237 33.1748L128.139 34.273C128.46 33.7169 128.61 33.1113 128.701 32.4367C128.79 31.775 128.832 30.9547 128.885 29.9491L126.692 29.8342ZM127.841 7.89933L126.692 29.8342L128.885 29.9491L130.035 8.01428L127.841 7.89933ZM127.738 4.52944C127.834 4.74569 127.9 5.04098 127.916 5.58509C127.932 6.14206 127.896 6.85751 127.841 7.89933L130.035 8.01428C130.087 7.00866 130.131 6.18852 130.112 5.52105C130.092 4.84071 130.006 4.22269 129.745 3.63604L127.738 4.52944ZM126.678 3.35248C127.147 3.62306 127.518 4.03506 127.738 4.52944L129.745 3.63604C129.336 2.71792 128.647 1.95277 127.777 1.45026L126.678 3.35248ZM123.338 2.89771C124.379 2.95231 125.095 2.99066 125.647 3.06503C126.186 3.13769 126.473 3.23411 126.678 3.35248L127.777 1.45026C127.22 1.12917 126.615 0.979049 125.94 0.888197C125.278 0.799063 124.458 0.756932 123.453 0.70423L123.338 2.89771Z" fill="url(#paint1_linear_2642_13216)" mask="url(#path-2-inside-1_2642_13216)"/>
<path d="M98.8866 22.1166C99.068 22.1428 99.2743 22.1702 99.5055 22.1989C99.7541 22.212 100.044 22.2271 100.376 22.2445C102.315 22.3461 103.774 21.9324 104.753 21.0032C105.749 20.0749 106.292 18.749 106.382 17.0254C106.477 15.2189 106.101 13.8282 105.255 12.8532C104.409 11.8782 103.016 11.3399 101.077 11.2383C100.812 11.2244 100.538 11.2184 100.255 11.2202C99.9736 11.2054 99.7076 11.2081 99.4572 11.2282L98.8866 22.1166ZM110.385 17.2351C110.307 18.7267 110.006 20.0155 109.484 21.1016C108.962 22.1877 108.251 23.0727 107.351 23.7568C106.467 24.4417 105.403 24.9343 104.157 25.2346C102.912 25.535 101.527 25.6452 100.002 25.5653C99.306 25.5288 98.4957 25.4531 97.5711 25.3382C96.6456 25.2398 95.7402 25.076 94.8548 24.8468L95.7342 8.06667C96.6378 7.94784 97.5715 7.88876 98.5354 7.88941C99.5167 7.87437 100.355 7.88508 101.051 7.92156C102.526 7.99886 103.852 8.23451 105.028 8.62851C106.22 9.02337 107.229 9.5997 108.053 10.3575C108.878 11.1153 109.493 12.0616 109.899 13.1963C110.304 14.331 110.466 15.6773 110.385 17.2351ZM125.001 20.0701C124.947 21.0977 124.749 22.0345 124.405 22.8807C124.062 23.7102 123.593 24.4169 122.998 25.0005C122.403 25.5676 121.699 25.9961 120.886 26.2858C120.09 26.5765 119.203 26.6962 118.225 26.6449C117.264 26.5946 116.394 26.3828 115.616 26.0096C114.855 25.6374 114.208 25.1381 113.675 24.512C113.144 23.8693 112.743 23.117 112.473 22.2553C112.203 21.377 112.095 20.4241 112.149 19.3966C112.203 18.369 112.409 17.4409 112.768 16.6122C113.144 15.7844 113.629 15.0869 114.224 14.5198C114.835 13.9536 115.539 13.5251 116.335 13.2345C117.148 12.9447 118.019 12.8242 118.947 12.8728C119.892 12.9223 120.745 13.1332 121.506 13.5055C122.284 13.8786 122.94 14.3783 123.472 15.0044C124.004 15.6306 124.405 16.3745 124.676 17.2363C124.947 18.098 125.055 19.0426 125.001 20.0701ZM121.222 19.8721C121.282 18.7286 121.097 17.8215 120.667 17.1508C120.254 16.4644 119.625 16.0991 118.78 16.0548C117.935 16.0105 117.263 16.3077 116.764 16.9463C116.266 17.5683 115.987 18.4511 115.927 19.5946C115.867 20.7381 116.052 21.6618 116.48 22.3656C116.909 23.0529 117.547 23.4186 118.392 23.4629C119.237 23.5072 119.901 23.2096 120.383 22.5702C120.883 21.915 121.162 21.0156 121.222 19.8721Z" fill="url(#paint2_linear_2642_13216)"/>
<defs>
<linearGradient id="paint0_linear_2642_13216" x1="2.83705e-06" y1="-0.298519" x2="76.8772" y2="33.381" gradientUnits="userSpaceOnUse">
<stop stop-color="#06082E"/>
<stop offset="0.473958" stop-color="#161C86"/>
<stop offset="1" stop-color="#06082E"/>
</linearGradient>
<linearGradient id="paint1_linear_2642_13216" x1="90.6843" y1="-2.07475e-07" x2="125.096" y2="34.7778" gradientUnits="userSpaceOnUse">
<stop stop-color="#BD0C3A"/>
<stop offset="0.484375" stop-color="#E2033E"/>
<stop offset="1" stop-color="#BD0C3A"/>
</linearGradient>
<linearGradient id="paint2_linear_2642_13216" x1="90.5224" y1="1.81202" x2="125.167" y2="35.7623" gradientUnits="userSpaceOnUse">
<stop offset="0.305027" stop-color="#BD0C3A"/>
<stop offset="0.5" stop-color="#EC114A"/>
<stop offset="0.70198" stop-color="#BD0C3A"/>
</linearGradient>
</defs>
</svg>
