<svg width="40" height="40" viewBox="0 0 40 40" fill="none" xmlns="http://www.w3.org/2000/svg">
<path d="M6.66659 6.66675C5.78253 6.66675 4.93468 7.01794 4.30956 7.64306C3.68444 8.26818 3.33325 9.11603 3.33325 10.0001V16.6667C4.21731 16.6667 5.06515 17.0179 5.69028 17.6431C6.3154 18.2682 6.66659 19.116 6.66659 20.0001C6.66659 20.8841 6.3154 21.732 5.69028 22.3571C5.06515 22.9822 4.21731 23.3334 3.33325 23.3334V30.0001C3.33325 30.8841 3.68444 31.732 4.30956 32.3571C4.93468 32.9822 5.78253 33.3334 6.66659 33.3334H33.3332C34.2173 33.3334 35.0651 32.9822 35.6902 32.3571C36.3154 31.732 36.6665 30.8841 36.6665 30.0001V23.3334C35.7825 23.3334 34.9346 22.9822 34.3095 22.3571C33.6844 21.732 33.3332 20.8841 33.3332 20.0001C33.3332 19.116 33.6844 18.2682 34.3095 17.6431C34.9346 17.0179 35.7825 16.6667 36.6665 16.6667V10.0001C36.6665 9.11603 36.3154 8.26818 35.6902 7.64306C35.0651 7.01794 34.2173 6.66675 33.3332 6.66675H6.66659ZM6.66659 10.0001H33.3332V14.2334C31.2665 15.4167 29.9999 17.6167 29.9999 20.0001C29.9999 22.3834 31.2665 24.5834 33.3332 25.7667V30.0001H6.66659V25.7667C8.73325 24.5834 9.99992 22.3834 9.99992 20.0001C9.99992 17.6167 8.73325 15.4167 6.66659 14.2334V10.0001Z" fill="#676767"/>
</svg>
